<svg width="444" height="19" viewBox="0 0 444 19" fill="none" xmlns="http://www.w3.org/2000/svg">
<path d="M438.798 18.9034C436.316 19.1509 433.062 18.8862 430.588 18.523C429.813 18.4104 430.206 17.9068 429.671 17.8063C428.624 17.6105 427.649 17.8575 426.615 17.6243C426.272 17.5445 426.699 16.7468 426.34 16.6815C424.371 16.3289 422.508 16.5321 420.513 16.3626C410.687 15.526 401.028 15.2266 391.082 14.8631C387.802 14.744 383.815 14.02 380.428 14.3366C380.033 14.3743 380.268 15.0745 380.193 15.1322C379.013 16.0156 379.405 14.6021 378.635 14.4143C375.577 13.6728 372.176 13.6083 369.234 13.8786C367.982 13.9956 369.237 15.3862 367.976 14.6057C367.889 14.5529 368.206 13.8094 367.863 13.7301C367.084 13.5518 365.607 13.6847 365.003 13.6258C363.84 13.5085 363.648 13.5159 362.548 13.5075C361.044 13.4894 359.255 13.1198 357.642 13.2883C357.298 13.3265 357.753 14.0886 357.204 14.2183C356.654 14.3478 355.2 14.2832 354.71 14.1035C354.219 13.9238 354.428 13.3247 354.341 13.1874C353.627 12.0284 351.945 13.6336 351.729 13.6733C347.782 14.3497 344.398 13.4353 340.693 13.4379C337.881 13.4418 334.874 13.7437 332.198 13.7023C329.009 13.65 326.307 13.237 323.21 13.308C322.883 13.3146 323.266 14.2108 322.867 14.2207C318.626 14.3249 314.414 14.2273 310.191 13.6223C309.767 13.5608 310.313 12.774 309.89 12.6656C307.299 12.0189 303.2 10.4656 301.661 13.8913C299.906 13.7575 297.776 13.6193 296.206 12.9288C295.194 12.4843 296.177 11.6272 294.933 11.9929C294.653 12.0744 295.018 12.8251 294.597 12.8905C292.826 13.1653 290.892 12.9213 289.14 13.3092C288.784 13.3898 288.881 14.0624 288.78 14.1836C287.932 15.1645 286.519 13.543 286.211 13.4251C283.867 12.5465 282.155 12.8923 279.97 12.8708C279.463 12.8655 280.063 13.7689 279.575 13.7962C277.045 13.9257 274.425 13.8481 271.948 13.4472C271.397 13.3558 271.904 12.5862 271.64 12.5032C270.479 12.1465 270.222 13.6 269.109 13.286C268.874 13.2216 269.006 12.5628 268.963 12.4904C268.293 11.3546 267.711 12.964 267.539 12.9995C265.359 13.485 263.965 11.8049 261.859 12.0428C261.607 12.073 262.175 12.9066 261.467 12.9404C256.748 13.1705 251.757 12.9415 247.087 12.2747C246.36 12.1722 246.879 11.546 246.833 11.4688C246.088 10.2626 245.606 11.8787 245.37 11.9396C243.502 12.3777 241.756 11.0224 240.487 12.9474C232.576 12.2793 224.701 13.3603 216.855 11.6358C216.755 11.6158 216.934 10.8198 216.734 10.7834C214.338 10.3365 214.798 11.5736 213.213 13.0865C212.813 13.4664 211.598 11.6398 211.49 11.5059C211.099 11.0125 211.505 9.82832 211.374 9.73276C210.288 8.98242 210.465 12.8985 209.001 12.8998C208.955 12.8933 209.148 12.1725 209.025 12.1008C208.643 11.8758 208.264 12.1622 207.891 11.9141C207.036 11.3399 206.731 9.43705 205.425 10.5445C205.26 10.6883 205.512 12.9096 204.205 12.8047C203.684 12.761 201.377 12.7991 200.73 12.6551C200.085 12.5113 200.528 11.7955 200.482 11.7645C198.742 10.8179 199.402 10.4256 198.53 9.02421C197.658 7.62809 197.9 10.958 197.545 11.3296C197.189 11.7002 195.913 10.9192 195.6 10.6477C195.286 10.3761 195.677 9.92125 195.398 9.76755C193.551 8.76332 194.588 11.4204 193.979 11.9489C192.544 13.2003 191.426 10.7308 190.112 10.4889C189.757 10.4235 190.047 10.9859 189.73 11.0385C188.477 11.2394 187.723 10.4689 186.296 11.1754C186.063 11.2905 184.91 12.7752 184.163 11.6856C184.058 11.5285 184.358 10.9131 183.824 10.7753C183.026 10.5684 181.588 10.4339 180.729 10.6396C180.096 10.7918 180.822 11.8058 180.025 11.4908C179.67 11.3502 180.327 10.757 179.661 10.5422C178.999 10.3275 177.306 10.3536 176.662 10.3741C176.019 10.395 176.371 11.1642 176.319 11.216C176.004 11.5128 174.77 11.8837 174.661 11.8828C169.159 11.9767 164.086 10.6802 158.729 11.1093C158.309 11.1418 158.589 11.9529 158.525 11.9663C157.086 12.3061 158.22 10.1496 157.215 9.42777C157.36 11.0737 156.767 10.7757 155.753 10.9562C155.265 11.0445 155.531 11.6819 155.486 11.7471C154.762 12.7151 154.257 11.4648 154.127 11.209C153.648 10.2681 153.126 11.3799 152.799 10.7509C152.473 10.1267 153.224 9.20138 152.251 9.21323C151.979 9.80243 152.701 11.3422 151.963 11.5917C149.178 12.5356 143.979 11.3275 141.74 11.2021C139.505 11.0767 138.783 11.1854 137.481 10.9724C135.129 10.5874 135.991 11.7298 134.53 12.2527C133.066 12.7756 133.778 9.96475 133.567 9.36051C133.36 8.75654 133.135 9.37826 132.878 9.04624C132.621 8.7143 133.176 8.30345 132.573 8.17881C131.97 8.05429 130.321 9.12879 130.108 9.76059C129.656 11.0991 130.399 12.504 128.803 12.0103C128.711 11.981 129.009 11.242 128.658 11.1673C125.866 10.5983 122.967 10.563 120.179 10.0598C119.796 9.98943 120.138 9.16722 119.915 9.11698C117.592 8.59108 118.422 9.97743 117.149 11.5175C117.435 9.468 116.731 8.21411 114.967 8.202C113.907 8.19401 114.089 9.08913 113.404 9.72001C113.198 9.91018 112.448 9.29557 112.312 9.71653C111.864 11.0926 112.57 12.633 110.752 12.0196C110.673 11.9905 110.927 11.2372 110.651 11.1916C108.869 10.893 108.656 12.3324 106.73 12.5067C105.22 12.6435 102.536 11.7658 100.817 11.623C100.853 9.31879 99.2295 9.84643 98.5709 11.4351C97.4553 11.3701 96.2505 11.4599 95.1723 11.2403C94.8013 11.1655 95.0451 10.4983 94.9983 10.4262C94.2807 9.29546 93.7958 10.8411 93.555 10.9017C90.9453 11.4907 88.8192 10.3193 86.3287 11.4641C86.2403 11.5054 86.097 13.106 85.4313 11.9373C85.3881 11.8567 86.2108 11.1285 85.0392 11.0722C83.8674 11.0157 81.6585 10.1577 80.0318 10.8994C79.6381 11.0779 78.6424 12.3773 77.8432 11.3621C77.7367 11.2242 77.8533 10.7652 77.6996 10.5097C77.2028 9.69579 76.9316 11.3136 76.3476 9.93918C75.7637 8.56485 74.549 7.53557 72.9085 8.4838C72.8562 8.51137 72.4679 9.79362 71.952 9.77335C71.1284 9.73988 69.9592 9.47276 69.0993 9.48111C68.6875 9.48558 68.951 10.2818 68.8796 10.2964C66.1111 10.7425 64.1407 10.0327 61.1749 9.72464C60.6313 9.6666 59.0689 10.7524 58.0163 9.89395C56.8607 8.95427 58.0482 5.04533 55.3918 5.97661C54.3203 6.3491 52.9639 11.3083 51.0384 8.73893C47.3041 9.3756 43.8506 8.06061 40.1059 8.9697C39.9376 9.00998 39.405 10.3941 39.0091 10.3752C38.4214 10.3446 38.0988 9.69768 37.6791 9.65506C35.9206 9.46021 34.3115 10.0137 32.6159 9.92759C31.9722 9.89631 32.1973 9.22742 31.4295 9.19004C30.6623 9.15328 30.1506 10.0341 29.1109 9.60868C28.3256 9.28443 27.5405 7.48412 26.4982 7.27427C26.4585 9.05008 25.7426 9.0135 24.4702 9.48227C24.2256 9.57323 24.4879 10.1913 24.3722 10.2662C23.9014 10.5848 23.4655 10.0725 23.0185 10.4193C22.9098 10.5026 22.9046 11.109 22.8157 11.2113C22.0596 12.1044 20.8141 10.7403 20.6001 10.5028C19.7802 9.60074 19.3971 10.3895 18.7682 10.0343C18.1403 9.6791 19.0792 9.2351 18.3457 9.01957C16.8254 8.57376 14.8722 8.67171 13.3281 8.64384C12.7121 8.63646 13.1324 9.44598 13.0442 9.46372C11.7703 9.66904 10.4822 8.80794 9.7758 10.4204C8.89257 6.25112 9.00758 10.8248 7.18675 9.99021C7.04326 9.9227 6.86087 7.95106 7.41149 7.6616C7.96215 7.37242 8.79715 7.98872 9.56117 7.53752C9.74214 7.43163 10.7785 5.58407 10.9199 5.47215C12.0275 4.59749 12.1846 7.54384 12.2432 7.70567C12.9077 9.45206 14.1743 7.46167 14.5077 7.32414C16.0335 6.69395 17.3298 7.10831 18.606 6.65849C19.4406 6.36777 19.5223 4.4378 20.1776 4.49688C22.3563 4.69213 23.1169 7.38446 25.1698 5.05004C25.6101 4.55215 25.1726 2.44275 26.75 4.10143C26.8491 4.206 28.0202 5.72339 28.6968 4.7636C28.7817 4.64259 28.7792 4.02783 28.8912 3.97619C29.6423 3.64214 30.1432 4.13189 30.9614 3.89733C31.7796 3.66277 32.7633 3.31309 33.6975 3.5216C34.2605 3.64628 34.9828 4.79166 35.2523 5.07207C36.0132 5.87988 36.8292 4.55542 37.3005 5.53362C37.7759 6.51674 36.8466 8.00978 38.0931 8.645C38.1393 7.04782 38.2454 5.40848 38.3196 3.80224C41.0515 3.85847 43.7395 4.37493 46.4805 4.30437C46.8204 4.29403 46.4728 3.43538 46.8371 3.40215C48.3741 3.26574 49.7166 3.87785 51.3105 3.63409C52.5443 3.44212 53.8972 2.53299 55.1873 2.30395C55.9754 4.13157 57.8898 3.51114 59.2805 3.67815C59.7677 3.73586 59.7351 4.22399 60.0815 4.38323C61.3885 4.97218 60.7761 3.35713 61.1344 3.10296C62.6717 2.01822 62.8033 5.67381 64.6157 5.58348C64.7117 5.57993 65.8855 3.63135 66.0472 3.51C67.0744 2.71874 66.2171 4.18823 66.86 4.3322C68.0338 4.59531 68.8494 5.06066 70.2265 4.48992C70.6281 4.32087 71.5913 3.10633 72.3711 4.04577C72.4737 4.16878 72.417 4.81286 72.4995 4.85057C73.9941 5.47932 74.0335 3.45554 74.8874 2.77014C75.7417 2.08488 77.061 3.48193 77.3295 3.88457C78.0319 4.92619 76.7912 4.32972 76.7532 4.43194C76.3064 5.64838 77.2686 5.43895 78.0038 5.54173C78.1102 7.52607 79.1384 7.40697 78.766 5.64031C78.7236 5.44734 78.1514 5.63239 78.0038 5.54173C78.6492 3.59483 79.7791 3.34549 81.0272 5.16484C81.6113 6.01755 81.0591 7.01176 82.8338 6.64805C83.6392 6.48387 83.3279 5.11755 84.0387 4.74505C85.6625 3.89514 87.7726 5.16968 89.4467 4.96886C90.0542 4.89595 89.4624 4.14804 89.8776 4.07244C90.9796 3.86947 91.9514 4.43065 93.0582 4.14318C93.1584 4.11618 92.9135 3.33327 93.2576 3.3233C95.8666 3.23237 98.1385 3.73383 100.862 3.74773C102.179 3.75409 104.532 3.3223 105.895 3.40911C108.258 3.55495 111.165 4.69343 113.184 4.41686C114.501 4.23983 114.212 3.45675 114.776 2.92321C115.865 1.88899 117.792 3.74152 118.051 4.02837C118.059 4.03787 116.926 4.22247 117.531 4.62444C117.882 5.46202 118.039 4.032 118.051 4.02837C118.222 4.21368 120.485 4.39144 120.934 4.24175C121.179 4.15995 121.042 3.41803 121.169 3.3894C124.196 2.72545 127.228 2.53689 130.297 2.88378C130.351 2.89877 130.27 3.72865 130.397 3.75353C132.174 4.12252 133.312 3.10732 134.777 2.50457C136.242 1.9021 137.405 2.10389 138.272 3.52856C139.378 3.34918 140.964 3.97902 141.877 4.3612C142.79 4.74336 142.917 3.12794 142.997 3.096C145.502 2.07384 146.95 2.99849 149.549 3.14239C150.785 3.21357 153.236 2.97926 154.574 2.80261C155.631 2.6603 156.268 3.03888 157.242 2.79681C157.374 2.76448 157.241 2.04521 157.281 2.01752C158.368 1.15695 157.846 2.91532 158.07 3.22936C158.884 4.37138 159.387 4.97961 160.779 4.44237C161.1 4.31934 162.036 1.78753 162.621 1.63946C163.382 1.4516 163.095 2.3591 163.892 2.13928C163.96 2.1213 163.946 1.56143 164.438 1.58612C166.721 1.69334 169.211 2.01912 171.583 1.96301C171.907 1.95749 171.492 1.06946 171.96 1.04688C174.157 0.941612 176.566 0.974476 178.707 1.39014C179.233 1.49524 178.903 2.11702 179.017 2.30163C179.72 3.41869 180.715 1.79563 180.88 1.76471C184.799 0.984746 187.799 2.45359 191.794 1.75427C192.011 1.71322 193.685 -0.0267318 194.432 1.46551C194.483 1.5648 195.222 3.09152 195.875 2.04767C195.916 1.98236 195.455 1.19638 196.259 1.27649C197.062 1.35642 198.355 0.83155 199.46 1.69513C199.809 1.96717 200.636 3.49012 201.678 2.27612C201.746 2.19137 203.356 -0.553663 203.931 1.34027C204.024 1.65203 203.927 3.65625 205.172 2.62866C205.409 2.42944 204.978 1.9824 205.604 1.70325C206.564 1.27302 207.836 1.80981 209.016 0.916994C209.222 0.758934 210.098 -0.601407 210.801 0.431094C210.911 0.592802 210.702 1.26191 211.073 1.33679C212.838 1.69598 214.686 1.24841 216.478 1.71136C217.112 1.87404 216.788 2.95573 217.449 3.2456C218.111 3.53537 219.444 3.81412 220.136 3.31982C220.829 2.82529 220.072 1.10133 221.11 0.96338C225.62 0.364238 230.088 1.37556 234.591 1.5235C235.259 1.54559 234.705 0.928705 235.689 0.916994C239.318 0.8711 245.584 0.292702 248.733 1.60351C251.256 2.6534 248.081 3.4527 250.009 3.87994C250.939 4.08374 251.945 2.07946 252.17 2.01636C254.364 1.37539 255.889 2.26325 257.864 1.99084C258.271 1.93432 257.871 1.12196 258.219 1.08283C259.404 0.941946 260.65 1.30454 261.783 1.23822C262.291 1.2066 262.197 0.586149 262.665 0.634036C263.784 0.74147 264.773 1.00228 265.864 1.5838C265.963 1.63679 265.293 2.40861 266.121 2.43731C267.461 2.48158 269.124 3.05525 270.665 2.46283C271.123 2.28461 271.141 0.86659 272.124 1.84588C272.33 2.05042 272.067 3.75316 273.212 2.28192C273.405 2.03743 275.328 0.0530042 276.273 1.33215C276.522 1.66881 277.157 3.06217 277.707 2.8432C277.782 2.80826 277.483 2.04658 277.939 1.97229C279.545 1.72371 281.229 1.80497 282.879 1.56641C283.319 1.50119 282.663 0.713016 283.32 0.640994C285.126 0.441775 287.381 0.642459 289.147 0.889162C289.798 0.981613 289.348 1.63451 289.395 1.70557C290.157 2.86124 290.608 1.30134 290.861 1.21039C292.433 0.665751 293.631 1.3985 295.08 1.20459C295.481 1.15306 295.197 0.40928 295.276 0.34296C296.102 -0.30504 295.487 1.03068 296.01 1.17792C297.474 1.59482 299.107 1.53504 300.588 1.44C301.132 1.404 300.521 0.541575 301.009 0.519229C303.898 0.370619 306.902 0.453143 309.722 0.92859C310.253 1.01968 309.919 1.68377 310.03 1.83545C310.793 2.89664 311.911 1.44916 312.168 1.31128C313.337 0.681708 313.792 1.26898 314.825 1.15936C319.87 0.613606 326.1 1.00256 330.862 1.24286C337.069 1.55212 341.885 2.18389 347.803 2.01983C348.179 2.01024 347.8 1.12679 348.124 1.10718C352.31 0.894208 356.432 1.23942 360.626 0.984254C360.971 0.964881 360.474 0.127367 361.027 0.0681195C362.16 -0.0592771 363.596 -0.0137558 364.742 0.253666C365.3 0.382515 364.551 1.10118 365.113 1.21619C366.423 1.48563 367.827 1.54528 369.173 1.41101C369.745 1.35205 368.881 0.495484 369.626 0.485599C374.695 0.40062 379.674 0.253098 384.797 1.3623C385.148 1.43848 385.456 3.17936 386.203 2.84552C386.259 2.36237 386.256 1.79405 386.28 1.27765C393.66 0.999471 400.965 1.60298 408.365 1.69629C408.677 1.70002 408.138 0.77762 408.742 0.780153C412.238 0.793791 415.633 0.538257 419.21 1.45508C419.565 1.54474 419.382 3.16748 420.428 2.92205C420.613 2.87727 422.188 2.66085 422.595 2.30859C422.65 2.25546 422.363 1.49803 422.87 1.47595C425.819 1.36093 428.91 1.53385 431.854 1.99664C432.329 2.07278 431.823 2.87938 432.162 2.94061C434.562 3.36878 437.174 2.75562 439.468 3.48797C441.003 3.98108 440.435 5.37535 441.25 6.74779C441.366 6.94142 442.317 6.9721 442.366 7.77061C442.492 9.77853 442.032 11.9772 442.221 14.1175C442.26 14.5784 443.534 14.0819 442.78 15.1959C442.727 15.2705 441.804 15.6402 441.577 16.0181C441.418 16.2794 441.704 17.0915 441.381 17.426C441.058 17.7601 440.703 17.0794 440.167 17.4724C439.632 17.8702 439.867 18.794 438.798 18.9034ZM145.987 6.06938C146.832 6.84517 146.957 4.00377 146.043 4.68358C145.998 4.71981 145.943 6.03132 145.987 6.06938ZM43.7242 6.51817C44.8291 7.77143 45.5853 5.92864 44.8057 4.96074C44.0264 3.99389 43.3875 6.13826 43.7242 6.51817ZM32.2661 7.43315C33.5574 8.42128 33.7609 4.39207 32.3776 5.20659C32.2972 5.25262 32.1906 7.37577 32.2661 7.43315ZM437.467 7.13859C437.478 7.17633 438.162 7.2131 438.178 7.1757C438.542 6.27328 437.175 6.20037 437.467 7.13859ZM20.8959 8.4293C21.299 8.97434 22.4597 8.34516 21.9589 7.6674C21.5556 7.12216 20.3939 7.7513 20.8959 8.4293ZM190.077 9.1019C190.09 9.14424 190.58 9.18237 190.57 8.94303C190.537 8.17216 189.855 8.38972 190.077 9.1019ZM1.57092 8.47569C4.42609 8.62735 6.1572 11.9557 3.04796 11.5801C2.48493 11.5122 4.26143 10.5187 3.54484 10.2187C2.23353 9.67199 1.36276 11.7618 0.024588 10.6419C-0.217689 10.437 1.40807 8.45964 1.57599 8.47105C1.57435 8.47259 1.57266 8.47414 1.57092 8.47569ZM146.473 9.48227C146.49 9.51985 147.169 9.55547 147.185 9.51822C147.552 8.61616 146.186 8.54386 146.473 9.48227ZM218.67 10.8588C218.707 10.9389 220.281 11.0137 220.332 10.94C221.154 9.46486 217.971 9.30909 218.67 10.8588ZM100.79 11.5616C100.05 12.469 99.1643 12.5759 98.5742 11.4363C99.3098 11.4968 100.05 11.5057 100.79 11.5616Z" fill="#2247D8"/>
</svg>
