<svg width="273" height="178" viewBox="0 0 273 178" fill="none" xmlns="http://www.w3.org/2000/svg">
<path d="M140.349 175.15C135.349 172.218 130.477 169.49 125.732 166.498C123.867 165.322 122.771 165.828 121.57 167.521C120.382 169.195 119.106 170.817 117.712 172.268C110.615 179.657 98.4184 177.149 95.1009 166.367C94.4589 164.281 93.3579 164.056 91.6977 164.401C84.3909 165.922 78.1982 161.962 75.8544 154.017C75.0707 151.361 73.8819 150.643 71.536 150.698C62.9258 150.899 59.1714 147.777 56.5737 138.409C55.943 136.134 54.5692 135.741 52.8534 135.563C46.3918 134.892 41.8024 131.38 39.9599 124.05C38.8501 119.635 39.38 115.27 41.1205 111.168C41.8323 109.491 41.8001 108.306 40.5193 107.038C37.3995 103.948 34.4458 100.647 30.8817 98.1676C29.3331 97.0903 28.174 96.6424 27.0931 98.8464C26.1473 100.775 24.7625 100.036 23.5206 99.2093C17.8662 95.4458 12.2267 91.6533 6.5792 87.8764C4.86999 86.7333 3.18608 85.5323 1.42855 84.4945C-0.163138 83.5547 -0.352155 82.4161 0.502705 80.6873C4.90354 71.7871 9.22742 62.8374 13.6276 53.9369C22.0466 36.9072 30.5049 19.9028 38.9326 2.87867C40.6365 -0.563233 40.6984 -0.646782 43.6128 1.19912C49.8622 5.15735 56.0895 9.16128 62.3275 13.1429C63.9873 14.2024 65.423 15.2275 64.3458 17.9485C63.731 19.5017 65.1571 20.1443 66.0991 20.7434C73.2744 25.3062 80.4249 25.779 88.0191 21.5631C95.6922 17.3034 102.759 11.7718 110.647 7.99608C118.385 4.2919 126.347 1.41294 134.717 0.641568C142.337 -0.0607428 149.547 2.38952 156.494 5.80944C166.058 10.5185 175.61 15.2485 185.565 18.8373C191.869 21.1098 198.248 22.4576 204.87 21.707C206.137 21.5635 207.39 21.1153 208.613 20.6756C209.688 20.2889 210.395 19.5483 210.054 18.0298C209.582 15.9325 210.574 14.7318 212.105 13.8233C219.207 9.60682 226.32 5.41264 233.368 1.08047C235.293 -0.102773 235.994 1.03703 236.731 2.67052C242.372 15.1612 247.999 27.6599 253.677 40.1286C259.79 53.5531 265.248 67.3553 271.664 80.6058C273.695 84.7989 273.636 84.9053 269.908 86.9159C263.049 90.6152 256.599 95.1681 249.936 99.2759C246.666 101.292 245.911 101.158 243.973 97.6028C243.253 96.2826 242.498 95.38 241.07 96.3112C236.066 99.5734 230.801 102.315 226.135 106.255C224.618 107.536 224.392 108.668 225.2 110.708C229.226 120.88 223.124 133.348 213.437 134.776C210.786 135.167 209.156 135.948 208.59 139.455C207.247 147.786 199.094 154.535 191.571 152.653C189.799 152.21 188.731 152.886 188.106 155.044C185.185 165.124 177.126 169.851 168.069 166.867C166.105 166.22 164.983 167.098 164.067 168.943C161.785 173.538 158.442 176.709 153.862 177.686C149.224 178.675 144.817 177.19 140.349 175.15ZM111.955 55.0589C109.962 56.4261 108.021 57.9042 105.966 59.1378C101.352 61.9088 96.6252 64.1255 91.1858 62.8745C85.4995 61.5667 81.1333 58.3225 78.805 52.1131C76.5172 46.0117 78.2559 40.8228 81.8785 36.1391C82.4697 35.3748 83.4091 34.7612 83.0811 33.3131C82.8126 33.1959 82.4808 32.8975 82.2012 32.9513C75.2539 34.2893 68.895 32.1438 62.8025 28.6197C60.8684 27.5009 60.2571 28.7377 59.4926 30.363C51.1444 48.1118 42.762 65.8396 34.3818 83.5688C32.5159 87.5164 32.7167 88.8444 35.7856 91.5694C38.9791 94.405 42.2324 97.1536 45.4051 100.019C46.4361 100.95 47.2247 100.97 48.0262 99.7905C49.3084 97.9044 50.9284 96.4342 52.5973 95.0384C58.8531 89.8063 67.4902 91.2756 71.2599 98.1924C73.4762 102.259 73.4762 102.259 77.5203 100.427C86.511 96.3536 94.4757 100.837 96.9697 111.435C97.4081 113.298 98.0843 113.97 99.9003 113.536C108.022 111.593 115.146 116.664 116.067 126.045C116.548 130.941 117.557 132.923 121.916 134.337C128.73 136.547 131.623 146.103 128.901 154.758C128.266 156.779 128.603 157.731 130.194 158.721C134.199 161.215 138.089 163.948 142.074 166.484C145.04 168.371 148.161 169.711 151.676 169.251C154.422 168.892 157.852 165.935 158.484 163.174C159.238 159.878 156.656 159.045 155.079 157.635C148.234 151.514 141.295 145.53 134.429 139.441C132.399 137.641 132.159 135.233 133.594 133C134.782 131.152 136.771 130.975 138.867 132.601C139.719 133.262 140.512 134.029 141.302 134.788C149.617 142.771 158.623 149.709 167.367 157.036C172.675 161.485 178.59 159.22 181.102 152.444C182.118 149.702 181.671 147.768 179.633 146.058C175.263 142.392 170.924 138.675 166.58 134.967C160.443 129.727 154.291 124.51 148.191 119.215C145.783 117.126 145.322 114.357 146.802 112.058C147.995 110.202 150.789 110.243 153.071 112.152C153.209 112.268 153.339 112.399 153.476 112.518C162.537 120.35 171.557 128.247 180.684 135.98C183.854 138.666 186.724 141.885 190.377 143.769C194.031 145.654 198.422 143.801 200.587 139.598C202.782 135.336 202.244 132.721 198.454 129.248C197.984 128.817 197.516 128.383 197.033 127.971C185.924 118.507 174.81 109.05 163.705 99.5797C162.389 98.4576 161.05 97.365 161.391 95.0612C162.02 90.8019 164.983 89.725 168.301 92.5894C174.962 98.3411 181.612 104.111 188.299 109.824C194.091 114.773 199.917 119.669 205.748 124.558C209.696 127.867 214.022 127.465 216.812 123.594C219.909 119.297 219.704 115.147 215.919 111.104C213.096 108.087 210.145 105.197 207.075 102.511C193.955 91.0287 180.74 79.6881 167.619 68.2076C157.98 59.7736 148.145 51.6578 138.008 44.0244C132.535 39.9037 130.971 39.9682 125.746 44.4161C121.392 48.1222 116.894 51.5779 111.955 55.0589ZM208.51 92.8366C211.317 95.2785 214.173 97.6508 216.906 100.196C218.056 101.266 219.018 101.335 220.127 100.363C224.381 96.6359 229.102 93.8088 233.778 90.8625C235.506 89.7742 238.317 89.7733 238.764 87.2899C239.177 84.9957 237.084 83.1332 236.251 80.9947C230.38 65.9092 223.44 51.418 217.261 36.5036C216.268 34.106 215.336 31.6756 214.355 29.2712C213.921 28.2058 213.406 27.5023 212.159 28.0954C204.986 31.5062 197.671 30.5936 190.355 28.855C179.4 26.2514 169.3 20.8709 159.097 15.9338C145.936 9.5648 132.72 7.33268 118.971 13.1773C115.721 14.5592 112.46 15.9705 109.907 18.6706C102.455 26.5515 95.076 34.5247 87.7702 42.582C84.7517 45.9111 85.1741 49.5994 88.4783 52.6451C92.4227 56.281 96.3411 55.5766 100.465 53.0343C108.149 48.2975 115.039 42.2259 122.172 36.5599C127.473 32.3499 134.327 30.7711 140.672 35.7613C152.298 44.9039 164.063 53.8191 175.292 63.5979C186.31 73.1939 197.247 82.9119 208.51 92.8366ZM225.318 35.3966C229.197 44.4855 233.126 53.5474 236.941 62.6714C240.275 70.6476 243.68 78.5793 247.374 86.349C249.001 89.7701 249.098 89.7975 251.984 87.9656C254.463 86.3919 257.042 85.0249 259.56 83.5285C262.453 81.8092 262.565 81.4082 261.13 78.0906C256.142 66.5583 251.156 55.024 246.146 43.5039C241.939 33.8305 237.679 24.1867 233.487 14.5046C232.502 12.2284 231.393 11.4231 229.25 12.9319C226.84 14.6295 224.235 15.9668 221.73 17.4917C219.053 19.1213 218.749 20.0462 220.028 23.1047C221.694 27.0915 223.433 31.0387 225.318 35.3966ZM26.8962 44.6598C21.6176 55.5752 16.4315 66.5511 10.7511 77.2053C9.8399 78.9143 9.96599 80.0812 11.4846 81.0827C14.5364 83.0951 17.5556 85.1725 20.623 87.1528C23.5732 89.0575 23.7815 88.9802 25.2788 85.5802C30.184 74.4412 35.1824 63.3607 40.4644 52.4442C45.1204 42.8213 49.6072 33.0917 54.1519 23.3989C55.7628 19.9634 55.4964 18.9918 52.5252 17.0381C50.6618 15.8129 48.8027 14.5787 46.927 13.3783C43.3764 11.1062 43.1807 11.1696 41.2242 15.1859C36.502 24.8797 31.7865 34.5777 26.8962 44.6598ZM63.8975 132.5C63.2488 137.706 64.9451 141.255 68.6725 142.492C71.6727 143.488 75.1946 141.835 77.3478 138.275C80.1772 133.598 82.9225 128.854 85.7213 124.151C87.072 121.882 88.5101 119.682 89.3287 117.055C90.5535 113.125 88.7178 108.847 85.2039 107.729C81.9736 106.701 78.9829 107.827 77.0381 110.606C72.2826 117.401 67.3956 124.138 63.8975 132.5ZM89.223 134.675C87.3 138.042 85.2797 141.344 83.4908 144.801C82.4338 146.844 81.8949 149.094 82.9115 151.529C85.1607 156.916 90.9964 158.066 94.9593 153.17C100.326 146.54 104.713 138.975 108.418 130.984C109.889 127.812 108.578 124.22 105.847 122.42C102.491 120.208 98.422 121.357 95.0165 125.506C92.8276 128.173 91.3212 131.406 89.223 134.675ZM113.81 165.111C117.124 161.296 119.359 156.633 121.497 151.949C123.122 148.39 122.492 145.035 120.259 142.828C118.125 140.719 115.836 140.722 112.659 142.893C108.19 145.948 105.644 150.883 103.191 155.833C101.104 160.043 101.678 163.971 104.429 166.443C107.12 168.863 110.158 168.51 113.81 165.111ZM54.6618 104.096C51.7871 108.374 48.6095 112.447 47.0397 117.66C46.1237 120.701 47.5065 124.027 50.3495 126.104C52.7579 127.863 55.6131 127.972 57.2185 125.818C60.6745 121.183 63.9769 116.362 66.1406 110.735C67.3351 107.628 66.5449 104.024 64.561 102.073C62.4215 99.9693 59.8057 99.8965 56.9166 101.943C56.1936 102.456 55.5797 103.168 54.6618 104.096Z" fill="#BC9E5D"/>
</svg>
